<svg xmlns:xlink="http://www.w3.org/1999/xlink" width="70" height="48" viewBox="0 0 70 48" fill="none" xmlns="http://www.w3.org/2000/svg">
<path d="M41.2852 46.7199H54.254C55.7602 46.7209 57.2121 46.1591 58.3209 45.1463C59.4297 44.1336 60.1146 42.7437 60.2397 41.2525L61.8192 20.8702L66.2417 18.6732C67.2568 18.1694 68.0687 17.3366 68.5433 16.3126C69.0179 15.2885 69.1269 14.1351 68.8522 13.0413L67.3393 7.02874C66.9086 5.30679 65.9099 3.77747 64.5027 2.68484C63.0955 1.5922 61.3605 0.999297 59.5744 1.00002H45.9573" fill="url(#paint0_linear_1469_3190)"/>
<path d="M41.2852 46.7199H54.254C55.7602 46.7209 57.2121 46.1591 58.3209 45.1463C59.4297 44.1336 60.1146 42.7437 60.2397 41.2525L61.8192 20.8702L66.2417 18.6732C67.2568 18.1694 68.0687 17.3366 68.5433 16.3126C69.0179 15.2885 69.1269 14.1351 68.8522 13.0413L67.3393 7.02874C66.9086 5.30679 65.9099 3.77747 64.5027 2.68484C63.0955 1.5922 61.3605 0.999297 59.5744 1.00002H45.9573" stroke="#282828" stroke-width="1.93325" stroke-miterlimit="10"/>
<path d="M28.1836 46.7199H41.1524C42.6587 46.7209 44.1102 46.1591 45.219 45.1463C46.3278 44.1336 47.0126 42.7437 47.1378 41.2525L48.7176 20.8702L53.1401 18.6732C54.1553 18.1694 54.9671 17.3366 55.4417 16.3126C55.9163 15.2885 56.0254 14.1351 55.7506 13.0413L54.2374 7.02874C53.8066 5.30679 52.8084 3.77747 51.4012 2.68484C49.994 1.5922 48.2589 0.999297 46.4729 1.00002H32.8558" fill="white"/>
<path d="M28.1836 46.7199H41.1524C42.6587 46.7209 44.1102 46.1591 45.219 45.1463C46.3278 44.1336 47.0126 42.7437 47.1378 41.2525L48.7176 20.8702L53.1401 18.6732C54.1553 18.1694 54.9671 17.3366 55.4417 16.3126C55.9163 15.2885 56.0254 14.1351 55.7506 13.0413L54.2374 7.02874C53.8066 5.30679 52.8084 3.77747 51.4012 2.68484C49.994 1.5922 48.2589 0.999297 46.4729 1.00002H32.8558" stroke="#282828" stroke-width="1.93325" stroke-miterlimit="10"/>
<path d="M33.9027 1.00015H28.1832C28.1832 2.58159 27.5508 4.09757 26.4252 5.21582C25.2995 6.33406 23.7727 6.96273 22.1808 6.96273C20.589 6.96273 19.0625 6.33406 17.9369 5.21582C16.8113 4.09757 16.1789 2.58159 16.1789 1.00015H10.4261C8.64008 0.999426 6.90502 1.59233 5.49781 2.68497C4.09059 3.7776 3.09195 5.30692 2.66122 7.02887L1.14834 13.0415C0.87362 14.1353 0.982668 15.2887 1.45725 16.3127C1.93183 17.3367 2.74369 18.1695 3.75883 18.6734L8.18136 20.8703L9.678 41.2526C9.80317 42.7438 10.488 44.1337 11.5968 45.1465C12.7056 46.1593 14.1571 46.721 15.6633 46.72H28.6322C30.1367 46.7207 31.5861 46.1588 32.6922 45.1457C33.7983 44.1325 34.4801 42.7424 34.6013 41.2526L36.1807 20.8703L40.6032 18.6734C41.6184 18.1695 42.4302 17.3367 42.9048 16.3127C43.3794 15.2887 43.4885 14.1353 43.2137 13.0415L41.7005 7.02887C41.271 5.29998 40.2683 3.76494 38.8537 2.67126C37.4391 1.57757 35.6951 0.989107 33.9027 1.00015Z" fill="#F9D248" stroke="#282828" stroke-width="1.93325" stroke-miterlimit="10"/>
<defs>
<linearGradient id="paint0_linear_1469_3190" x1="16.7148" y1="4.57594" x2="45.1333" y2="36.0393" gradientUnits="userSpaceOnUse">
<stop stop-color="#F9D248"/>
<stop offset="1" stop-color="#F9D248" stop-opacity="0"/>
</linearGradient>
</defs>
</svg>