<svg xmlns:xlink="http://www.w3.org/1999/xlink" width="72" height="72" viewBox="0 0 72 72" fill="none" xmlns="http://www.w3.org/2000/svg">
<rect x="13.9023" y="11.0467" width="42.6538" height="14.2179" fill="url(#paint0_linear_1725_6343)"/>
<path d="M14.1172 25.3064H57.7429" stroke="#282828" stroke-width="1.93443" stroke-miterlimit="10"/>
<path d="M13 34.7108H56.6257" stroke="#282828" stroke-width="1.93443" stroke-miterlimit="10"/>
<path d="M13 44.7274H46.1891" stroke="#282828" stroke-width="1.93443" stroke-miterlimit="10"/>
<path d="M24.2656 24.6942V54.7439" stroke="#282828" stroke-width="1.93443" stroke-miterlimit="10"/>
<path d="M35.4492 24.6942V54.7439" stroke="#282828" stroke-width="1.93443" stroke-miterlimit="10"/>
<path d="M46.6367 24.6942V43.1024" stroke="#282828" stroke-width="1.93443" stroke-miterlimit="10"/>
<path d="M24.2656 8.00002V14.9448" stroke="#282828" stroke-width="1.93443" stroke-miterlimit="10"/>
<path d="M46.6367 8.04451V14.9893" stroke="#282828" stroke-width="1.93443" stroke-miterlimit="10"/>
<path fill-rule="evenodd" clip-rule="evenodd" d="M60.7976 41.3884L58.5604 49.2573H64.8468C64.8759 49.2559 64.905 49.2628 64.9298 49.2779C64.9547 49.293 64.9743 49.3151 64.9864 49.3415C64.9984 49.3679 65.0022 49.3972 64.9973 49.4257C64.9924 49.4543 64.979 49.4809 64.9588 49.5018L49.1751 68.1883C49.1532 68.2105 49.1252 68.2256 49.0946 68.2318C49.0639 68.238 49.032 68.235 49.0031 68.2231C48.9742 68.2111 48.9495 68.191 48.9323 68.1649C48.9152 68.1389 48.9062 68.108 48.9067 68.0769L50.4729 54.065H43.9961L47.2287 41.177H60.652C60.6774 41.1771 60.7023 41.1836 60.7247 41.1955C60.747 41.2073 60.7661 41.2241 60.7804 41.2449C60.7947 41.2657 60.8039 41.2895 60.8069 41.3145C60.8098 41.3395 60.8066 41.3649 60.7976 41.3884Z" fill="#F9D248" stroke="#282828" stroke-width="1.93443" stroke-miterlimit="10"/>
<path d="M43.8507 54.221H13.7827C13.7529 54.2226 13.7231 54.2175 13.6952 54.2069C13.6673 54.1963 13.642 54.1801 13.6209 54.1591C13.5998 54.1381 13.5834 54.1129 13.5727 54.0852C13.562 54.0574 13.5573 54.0279 13.5589 53.9982V11.0383C13.5589 10.9792 13.5825 10.9229 13.6244 10.8812C13.6664 10.8395 13.7234 10.816 13.7827 10.816H56.9608C57.0201 10.816 57.0772 10.8395 57.1192 10.8812C57.1611 10.9229 57.1847 10.9792 57.1847 11.0383V41.2661" stroke="#282828" stroke-width="1.93443" stroke-miterlimit="10"/>
<defs>
<linearGradient id="paint0_linear_1725_6343" x1="11.8712" y1="-4.18678" x2="35.2292" y2="20.6946" gradientUnits="userSpaceOnUse">
<stop stop-color="#F9D248"/>
<stop offset="1" stop-color="#F9D248" stop-opacity="0"/>
</linearGradient>
</defs>
</svg>