<svg xmlns:xlink="http://www.w3.org/1999/xlink" width="72" height="72" viewBox="0 0 72 72" fill="none" xmlns="http://www.w3.org/2000/svg">
<path d="M35.5 63C50.1355 63 62 51.1355 62 36.5C62 21.8645 50.1355 10 35.5 10C20.8645 10 9 21.8645 9 36.5C9 51.1355 20.8645 63 35.5 63Z" fill="#F9D248" stroke="#282828" stroke-width="2" stroke-miterlimit="10"/>
<path d="M35.4997 57.3119C46.994 57.3119 56.3119 47.994 56.3119 36.4997C56.3119 25.0054 46.994 15.6875 35.4997 15.6875C24.0054 15.6875 14.6875 25.0054 14.6875 36.4997C14.6875 47.994 24.0054 57.3119 35.4997 57.3119Z" fill="white" stroke="#282828" stroke-width="2" stroke-miterlimit="10"/>
<path d="M35.6933 23.5101L38.6535 32.882C38.667 32.923 38.6929 32.9588 38.7277 32.9843C38.7625 33.0098 38.8042 33.0235 38.8473 33.024L48.142 33.024C48.1854 33.0249 48.2272 33.0396 48.2619 33.0657C48.2966 33.0918 48.3222 33.1284 48.3351 33.1699C48.348 33.2113 48.3477 33.2555 48.3338 33.2967C48.32 33.3379 48.2934 33.3737 48.2581 33.399L40.7993 38.5697C40.7647 38.5964 40.7389 38.633 40.7251 38.6745C40.7113 38.7159 40.7103 38.7605 40.722 38.8026L43.5399 47.722C43.5554 47.7644 43.5567 47.8108 43.5434 47.8539C43.5301 47.897 43.503 47.9342 43.4664 47.9606C43.4298 47.9869 43.3855 48.0008 43.3405 47.9997C43.2954 47.9986 43.252 47.983 43.2168 47.9549L35.6156 42.5128C35.5821 42.4876 35.5414 42.4736 35.4995 42.4736C35.4575 42.4736 35.4166 42.4876 35.383 42.5128L27.7822 47.9549C27.7469 47.983 27.7032 47.9986 27.6582 47.9997C27.6131 48.0008 27.5688 47.9869 27.5322 47.9606C27.4956 47.9342 27.4688 47.897 27.4556 47.8539C27.4423 47.8108 27.4436 47.7644 27.459 47.722L30.277 38.8026C30.2906 38.7606 30.2903 38.7151 30.2764 38.6732C30.2624 38.6314 30.2354 38.5951 30.1993 38.5697L22.7405 33.399C22.7052 33.3737 22.6789 33.3379 22.6651 33.2967C22.6513 33.2555 22.6507 33.2113 22.6635 33.1699C22.6764 33.1284 22.702 33.0918 22.7368 33.0657C22.7715 33.0396 22.8136 33.0249 22.857 33.024L32.1513 33.024C32.1944 33.0235 32.2362 33.0098 32.2709 32.9843C32.3057 32.9588 32.3316 32.923 32.3451 32.882L35.3054 23.5101C35.3201 23.4705 35.3465 23.4363 35.3811 23.4122C35.4158 23.3881 35.4573 23.375 35.4995 23.375C35.5417 23.375 35.5828 23.3881 35.6175 23.4122C35.6522 23.4363 35.6786 23.4705 35.6933 23.5101Z" fill="url(#paint0_linear_1725_6342)" stroke="#282828" stroke-width="2" stroke-miterlimit="10"/>
<defs>
<linearGradient id="paint0_linear_1725_6342" x1="19.3566" y1="6.4427" x2="39.9524" y2="42.6246" gradientUnits="userSpaceOnUse">
<stop stop-color="#F9D248"/>
<stop offset="1" stop-color="#F9D248" stop-opacity="0"/>
</linearGradient>
</defs>
</svg>