<svg id="a" xmlns="http://www.w3.org/2000/svg" xmlns:xlink="http://www.w3.org/1999/xlink" viewBox="0 0 121.48 137.39" width="121.48"  height="137.39" ><defs><style>.j{fill:url(#d);}.j,.k,.l,.m,.n,.o,.p,.q{stroke-linecap:round;stroke-linejoin:round;stroke-width:4.35px;}.j,.k,.l,.m,.n,.o,.p,.q,.r{stroke:#282827;}.k{fill:url(#f);}.l{fill:url(#g);}.m{fill:url(#e);}.n{fill:url(#h);}.o{fill:url(#i);}.p{fill:url(#c);}.q{fill:#f8d147;}.s{fill:#282827;}.r{fill:url(#b);stroke-miterlimit:10;stroke-width:4.15px;}</style><linearGradient id="b" x1="6.94" y1="76.65" x2="98.66" y2="76.65" gradientTransform="matrix(1, 0, 0, 1, 0, 0)" gradientUnits="userSpaceOnUse"><stop offset="0" stop-color="#f8d147"/><stop offset=".17" stop-color="#f9dd77"/><stop offset=".37" stop-color="#fbe9a7"/><stop offset=".56" stop-color="#fdf2cd"/><stop offset=".73" stop-color="#fef9e8"/><stop offset=".88" stop-color="#fefdf9"/><stop offset="1" stop-color="#fff"/></linearGradient><linearGradient id="c" x1="35.69" y1="10.17" x2="85.69" y2="10.17" gradientTransform="matrix(1, 0, 0, 1, 0, 0)" gradientUnits="userSpaceOnUse"><stop offset="0" stop-color="#f8d147"/><stop offset="1" stop-color="#fff"/></linearGradient><linearGradient id="d" x1="60.69" y1="86.77" x2="85.22" y2="86.77" xlink:href="#c"/><linearGradient id="e" x1="60.84" y1="41.17" x2="60.84" y2="41.17" xlink:href="#c"/><linearGradient id="f" x1="93.72" y1="76.17" x2="98.72" y2="76.17" xlink:href="#c"/><linearGradient id="g" x1="60.84" y1="111.17" x2="60.84" y2="111.17" xlink:href="#c"/><linearGradient id="h" x1="23.72" y1="76.17" x2="28.72" y2="76.17" xlink:href="#c"/><linearGradient id="i" x1="60.84" y1="65.67" x2="60.84" y2="65.67" xlink:href="#c"/></defs><circle class="q" cx="60.74" cy="76.65" r="58.57"/><circle class="r" cx="60.74" cy="76.65" r="45.86"/><rect class="p" x="35.69" y="2.17" width="50" height="16" rx="8" ry="8"/><line class="j" x1="85.22" y1="97.67" x2="60.69" y2="75.86"/><circle class="s" cx="60.74" cy="76.65" r="6"/><line class="m" x1="60.84" y1="38.67" x2="60.84" y2="43.67"/><line class="k" x1="93.72" y1="76.17" x2="98.72" y2="76.17"/><line class="l" x1="60.84" y1="113.67" x2="60.84" y2="108.67"/><line class="n" x1="28.72" y1="76.17" x2="23.72" y2="76.17"/><line class="o" x1="60.84" y1="55.67" x2="60.84" y2="75.67"/></svg>