<svg id="a" xmlns="http://www.w3.org/2000/svg" xmlns:xlink="http://www.w3.org/1999/xlink" viewBox="0 0 149.66 157.24" width="149.66"  height="157.24" ><defs><style>.c{fill:url(#b);}.c,.d{stroke-linecap:round;}.c,.d,.e,.f,.g{stroke:#282827;}.c,.d,.f,.g{stroke-width:4.35px;}.c,.d,.g{stroke-linejoin:round;}.d{fill:#f8d147;}.e{fill:#24272a;}.e,.f{stroke-miterlimit:10;}.f,.g{fill:none;stroke-linecap:square;}</style><linearGradient id="b" x1="13.89" y1="97.55" x2="147.49" y2="97.55" gradientTransform="matrix(1, 0, 0, 1, 0, 0)" gradientUnits="userSpaceOnUse"><stop offset="0" stop-color="#f8d147"/><stop offset="1" stop-color="#fff"/></linearGradient></defs><path class="c" d="M93.9,140.78l1.43,10c0,2.86,2.86,4.29,5,4.29h5c2.14,0,4.29-1.43,5-3.57,2.86-7.14,5-15,7.86-22.15,2.14-5.72,4.29-10.72,7.86-15.72,3.57-4.29,8.57-10,14.29-12.15,1.43-.71,3.57,0,5-1.43,.71-.71,1.43-1.43,1.43-2.14,.71-3.57,.71-7.14,.71-10.72,0-2.86,0-9.29-3.57-10.72-.71,0-11.43,.71-15.72-1.43-2.14-.71-2.14-5-5.72-7.86-3.57-3.57-3.57-2.86-6.43-5.72-2.14-2.14,.71-8.57,2.86-14.29,1.43-3.57-1.43-7.14-5.72-7.14-7.14,.71-12.15,5.72-15,8.57-1.43,1.43-3.57,2.14-5.72,1.43-6.43-2.14-13.57-2.86-20.72-2.86-32.15,0-57.87,21.43-57.87,47.15,0,10.72,4.29,20,11.43,27.86q.71,.71,.71,1.43l10.72,27.86c.71,2.14,2.86,2.86,5,2.86h3.57c2.86,0,5-2.14,5-4.29l1.43-9.29"/><path class="f" d="M19.6,71.48c-3.57-2.14-5.72-5-7.14-8.57-1.43-3.57-1.43-10.72,3.57-10.72,2.86,0,4.29,3.57,4.29,5.72-1.43,5.72-7.14,10-12.86,8.57-2.14-.71-4.29-2.86-5-5-.71-2.86,0-5.72,1.43-7.86"/><path class="g" d="M87.47,60.76c-10-3.57-27.15-2.86-37.87,3.57"/><circle class="d" cx="70.33" cy="19.32" r="17.15"/><path class="e" d="M113.32,74.42c-1.52,0-2.76,1.24-2.76,2.76s1.24,2.76,2.76,2.76,2.76-1.24,2.76-2.76-1.24-2.76-2.76-2.76Z"/><path class="f" d="M101.76,135.78c-8.57,4.29-18.58,6.43-28.58,6.43s-20-2.14-28.58-6.43"/></svg>