<svg version="1.1" id="Layer_1" xmlns="http://www.w3.org/2000/svg" xmlns:xlink="http://www.w3.org/1999/xlink" x="0px" y="0px" viewBox="0 0 153 122.2" style="enable-background:new 0 0 153 122.2;" xml:space="preserve" width="153"  height="122.2" >
<style type="text/css">
	.st0{fill:url(#SVGID_1_);}
	.st1{fill:none;}
	.st2{fill:#F8D147;stroke:#282827;stroke-width:4.3509;stroke-linejoin:round;stroke-miterlimit:10;}
	.st3{fill:none;stroke:#282827;stroke-width:4.35;stroke-linecap:round;stroke-linejoin:round;stroke-miterlimit:3;}
	.st4{fill:none;stroke:#282827;stroke-width:4.35;stroke-linecap:square;stroke-linejoin:round;stroke-miterlimit:10;}
</style>
<linearGradient id="SVGID_1_" gradientUnits="userSpaceOnUse" x1="46.2142" y1="60.6267" x2="150.4546" y2="60.6267">
	<stop offset="0" style="stop-color:#F8D147"/>
	<stop offset="1" style="stop-color:#FFFFFF"/>
</linearGradient>
<path class="st0" d="M150.5,87.4V33.9c0-1.6-0.9-3-2.2-3.8L100.5,3.2c-1.3-0.8-2.9-0.8-4.2,0L48.4,30.1c-1.4,0.8-2.2,2.2-2.2,3.8  v53.5c0,1.6,0.9,3,2.2,3.8l47.8,26.9c1.3,0.8,2.9,0.8,4.2,0l47.8-26.9C149.6,90.4,150.4,89,150.5,87.4z"/>
<rect x="28.4" y="-9" class="st1" width="139" height="139"/>
<polygon class="st2" points="66.8,19.5 116.5,48.2 116.5,70.2 126.5,62.2 133.5,61.8 133.5,39.2 82.8,10.5 "/>
<path class="st3" d="M150,87.3V33.8c0-1.6-0.9-3-2.2-3.8L100,3.1c-1.3-0.8-2.9-0.8-4.2,0L48,30c-1.4,0.8-2.2,2.2-2.2,3.8v53.5  c0,1.6,0.9,3,2.2,3.8L95.8,118c1.3,0.8,2.9,0.8,4.2,0l47.8-26.9C149.1,90.3,150,88.9,150,87.3z"/>
<polyline class="st3" points="149.4,31.5 98.4,60.5 46.4,31.5 "/>
<line class="st3" x1="98.4" y1="60.5" x2="97.9" y2="118.5"/>
<line class="st4" x1="2.5" y1="46.8" x2="36.1" y2="46.8"/>
<line class="st4" x1="16.2" y1="60.8" x2="36.1" y2="60.8"/>
<line class="st4" x1="6.5" y1="74.8" x2="36.1" y2="74.8"/>
</svg>