<svg id="a" xmlns="http://www.w3.org/2000/svg" xmlns:xlink="http://www.w3.org/1999/xlink" viewBox="0 0 150.16 138.99" width="150.16"  height="138.99" ><defs><style>.c,.d,.e{fill:none;}.f{fill:url(#b);}.f,.g,.h,.d,.e{stroke:#282827;}.f,.g,.d,.e{stroke-width:4.35px;}.f,.h,.d{stroke-linejoin:round;}.f,.d{stroke-linecap:round;}.i{fill:#fff;}.g,.h{fill:#f8d147;}.g,.e{stroke-miterlimit:10;}.h{stroke-width:4.35px;}</style><linearGradient id="b" x1="17.37" y1="69.49" x2="121.61" y2="69.49" gradientTransform="matrix(1, 0, 0, 1, 0, 0)" gradientUnits="userSpaceOnUse"><stop offset="0" stop-color="#f8d147"/><stop offset="1" stop-color="#fff"/></linearGradient></defs><g><rect class="c" width="138.99" height="138.99"/><path class="f" d="M121.61,96.26V42.73c0-1.57-.86-3.02-2.23-3.8L71.61,12.05c-1.31-.76-2.92-.76-4.23,0L19.6,38.93c-1.37,.78-2.22,2.23-2.23,3.8v53.53c0,1.57,.86,3.02,2.23,3.8l47.78,26.87c1.31,.76,2.92,.76,4.23,0l47.78-26.87c1.37-.78,2.22-2.23,2.23-3.8Z"/><polyline class="d" points="121.02 40.5 69.98 69.49 17.97 40.5"/><line class="d" x1="69.98" y1="69.49" x2="69.49" y2="127.48"/></g><g><circle class="i" cx="119.99" cy="94.21" r="28"/><g><circle class="d" cx="119.91" cy="93.94" r="28.08"/><path class="g" d="M145.12,106.34l-15.88-9.77c-.27-.18-.58-.29-.91-.32l-6.7-.91c-1.03-.15-2.03,.42-2.43,1.37l-4.01,8.98c-.39,.85-.22,1.85,.41,2.54l5.5,5.94c.5,.55,.72,1.31,.58,2.05l-1.14,5.79s15.53,.27,24.57-15.68Z"/><path class="g" d="M110.14,92.48l-6.26-1.35c-.79-.17-1.43-.73-1.7-1.49l-3.36-8.95c-.21-.56-.2-1.18,.03-1.73l2.63-6.2c12.84-10.62,25.59-6,25.59-6l2.72,4.91c.52,.95,.32,2.13-.47,2.87l-7.87,7.11c-.13,.13-.28,.23-.44,.32l-3.6,1.99c-.34,.18-.72,.28-1.11,.29h-6.26c-.94,0-1.79,.57-2.16,1.43l-2.43,5.76"/><path class="e" d="M118.92,97.36h-3.95c-.89-.01-1.7-.52-2.11-1.32l-1.11-2.31c-.31-.65-.9-1.12-1.61-1.26"/></g></g><polygon class="h" points="103.99 50.21 52.26 20.94 36.26 29.94 86.99 59.63 103.99 50.21"/></svg>